<svg xmlns="http://www.w3.org/2000/svg" viewBox="0 0 19 15.73"><defs><style>.cls-1{fill:#382b20;fill-rule:evenodd;}</style></defs><g id="レイヤー_2" data-name="レイヤー 2"><g id="SNS"><g id="twitter"><path class="cls-1" d="M18.73,2.54a6.56,6.56,0,0,1-1,.94,1.36,1.36,0,0,1-.67.44V5.1A9.07,9.07,0,0,1,17,6.52a18.56,18.56,0,0,1-.86,2.76,11.37,11.37,0,0,1-5.71,5.6,11.26,11.26,0,0,1-2.1.59,11.25,11.25,0,0,1-5,0,18,18,0,0,1-2.18-.76C.76,14.49.39,14.21,0,14v0H.38c.18,0,1.4,0,1.63-.05a9.36,9.36,0,0,0,2.73-1c.3-.19.73-.33.93-.62-.45-.15-.92-.11-1.31-.28A3.87,3.87,0,0,1,2.11,9.56,5.43,5.43,0,0,0,3.8,9.49v0A4.09,4.09,0,0,1,.69,5.58c.21,0,.22.11.36.17A3.85,3.85,0,0,0,2.28,6V6A3.84,3.84,0,0,1,.69,2.44C.8,2,.88.88,1.3.81A5.94,5.94,0,0,0,2.9,2.37,10.9,10.9,0,0,0,9.4,4.89a3.42,3.42,0,0,1-.1-1.07c0-.3.09-.6.14-.9A4,4,0,0,1,11.82.33,3.8,3.8,0,0,1,14.1.09a5,5,0,0,1,1.56.69c.22.16.34.46.69.48L17.53.92A4.21,4.21,0,0,1,18.67.4a3.65,3.65,0,0,1-1.14,1.82c-.15.09-.32,0-.42.36h.24c.14-.38.26-.1.44-.16A6.54,6.54,0,0,1,19,2v.1A1.65,1.65,0,0,1,18.73,2.54Z"/></g></g></g></svg>