<?xml version="1.0" encoding="UTF-8"?>
<svg id="_レイヤー_2" data-name="レイヤー 2" xmlns="http://www.w3.org/2000/svg" viewBox="0 0 68.94 79.05">
  <defs>
    <style>
      .cls-1 {
        fill: #382b20;
      }
    </style>
  </defs>
  <g id="_レイヤー_1-2" data-name="レイヤー 1">
    <path class="cls-1" d="m58.64,15.85c-4.26-2.78-7.33-7.22-8.29-12.4-.21-1.12-.32-2.27-.32-3.45h-13.59l-.02,54.47c-.23,6.1-5.25,11-11.4,11-1.91,0-3.71-.48-5.3-1.31-3.64-1.91-6.13-5.73-6.13-10.11,0-6.3,5.13-11.42,11.42-11.42,1.18,0,2.3.19,3.37.53v-13.88c-1.1-.15-2.23-.24-3.37-.24C11.22,29.02,0,40.25,0,54.04c0,8.46,4.23,15.95,10.68,20.48,4.06,2.85,9.01,4.53,14.34,4.53,13.79,0,25.02-11.22,25.02-25.02v-27.62c5.33,3.83,11.86,6.08,18.91,6.08v-13.59c-3.79,0-7.33-1.13-10.3-3.06h0Z"/>
  </g>
</svg>