<svg xmlns="http://www.w3.org/2000/svg" viewBox="0 0 98.23 120.99"><defs><style>.cls-1{fill:#b02032;}.cls-2{fill:#fff;}</style></defs><g id="レイヤー_2" data-name="レイヤー 2"><g id="フッター"><path class="cls-1" d="M38.28,0h22a10.87,10.87,0,0,1,11,10.64V78.3a10.88,10.88,0,0,1-11,10.7h-22a10.88,10.88,0,0,1-11-10.7V10.64A10.88,10.88,0,0,1,38.28,0Z"/><path class="cls-2" d="M57.29,15.93A3,3,0,0,0,54,15.12,38.69,38.69,0,0,0,49.36,15l-2.65.11a31,31,0,0,0-4.29.26,7.47,7.47,0,0,0-1.65,6.94c-.75,2.34.61,7.74,2.26,9.59.31.06.8.92,2.1.92.49.18.79.3.73,1.47a55.14,55.14,0,0,0-1.48,5.41c-.55,1-1,2.76-1.65,3.5a2.5,2.5,0,0,0,.19,2c.36.06.55-.3.79-.3,1.78-2.76,2.52-6,3.19-9.22.37-.92.06-1.35.81-2.09A2.59,2.59,0,0,1,49.48,33a4.4,4.4,0,0,1,3.14.61c.79,2.65.91,5.47,2.21,7.93,1,1.23.86,3.32,2.58,3.74.37-.18-.25-.36,0-.61.56-2-.93-3.44-1.54-5s-.79-3.62-1.35-5.28c-.12-.74-.43-1.78.56-2.21s2-.67,2.33-1.72c.92-1.11.8-3.07,1.17-4.43a9.88,9.88,0,0,0,.55-4.47C58.88,19.61,59.49,16.72,57.29,15.93Zm-13,1.25c1.6.06,3.32-.31,5.16-.18h.13c2.09.12,4.42-.06,6.45.06a3.7,3.7,0,0,0,.42.61,17.56,17.56,0,0,1,.13,2.64c-.86.37-1.78-.12-2.58-.18s-2.76.18-4.55.37a12.86,12.86,0,0,1-3,.06c-.73.37-1.59-.12-2.45.31-.43-.37-1.1.43-1.47-.19C42,19.14,43.34,18,44.32,17.18Zm10.88,13c-1.23,0-2.15.93-3.38,1a7.17,7.17,0,0,1-2.34.25,6.3,6.3,0,0,1-2.39-.25c-1.29.49-2.21-.56-3.07-1.48-.12-.72-.92-1.95-.8-2.76,1.72-.67,4.24-.12,6.26-.3a6.28,6.28,0,0,0,1.29-.25c1.17.62,5.66.06,6.08,0C56.43,27.6,56.92,30.13,55.2,30.19Zm1.41-5.4c-2.33,0-4.55,0-6.88.18-.06,0-.12-.06-.25-.06-1-.12-5.46.06-6.26.54-.62-.42-.43-1.4-.67-2.14-.13-1,1-.68,1.59-.92.68.43,3,.37,5.34.24,2.52-.18,5-.55,5.47-.55a1.11,1.11,0,0,1,1.66.31C56.61,23.19,57.22,24.05,56.61,24.79Z"/><path class="cls-2" d="M64,12.2c-.3-.74-10.13-1-12.22-.67-1-.74.18-2.22,0-3.13.3-1.6,5.09-1.11,6.45-1.11,1.17.3,2.39,0,3.68.3.5-.24,1.54.07,1.6-.67-.37-1-1.35-.92-2.15-1.11C58,5.93,54.65,5.88,51.2,6H49.48a79.53,79.53,0,0,1-10.86-.31c-.68.31-2,.37-1.85,1.48a.85.85,0,0,0,.36.12,2.75,2.75,0,0,0,1.36.12c2.76.55,7.8-.18,10.44.18a3,3,0,0,1,.5,1.6c0,.68,0,2-.5,2.34-1.78-.19-7.86-.49-9.7.37a9,9,0,0,0-4.67.43,1.06,1.06,0,0,0,.55,1.47c1.53.19,5.59-.68,7.62-.49,1.59-.43,4.6,0,6.75.06a8.13,8.13,0,0,0,2-.19c1.79-.3,10.75.31,12.16,0A.87.87,0,0,0,64,12.2Z"/><path class="cls-2" d="M56.28,54V49.22s.33-.13.2-.13-.2-.05-.2-.05v.05s-.47.07-.59.07-.18.06-.25.06c-.06.18-.06.49-.12.86s-.06.74-.06,1.24a10.74,10.74,0,0,0-.12,1.34c-.06.37-.06,1.29-.12,1.53-.81.5-2,.68-2.47-1.47a.46.46,0,0,0-.27-.43v-2.4a2.61,2.61,0,0,0-.34-.89H50.28v1.33a2.32,2.32,0,0,1,1,.61v.61S51,51.86,51,52a2.56,2.56,0,0,0,.06.61,3.42,3.42,0,0,0,.18,1c.13.37.19.68.31,1.05s.19.55.25.8a3.84,3.84,0,0,0,.73.48,3.38,3.38,0,0,0,1,.31c.38.06.75.06,1,.13a2.31,2.31,0,0,1,.7.12V57c.16.13.23.25.23.32s.06.18.12.24.24.19.37.31l.12-.06.68-.25c.05-.49.12-.92.18-1.41a.89.89,0,0,0,.37.12,1.08,1.08,0,0,0,.62,0c.24,0,.48-.06.67-.06a1.58,1.58,0,0,1,.49-.06c.31,0,.62-.25,1-.62a4.41,4.41,0,0,0,.92-1.9,5.56,5.56,0,0,0,.37-2.33,11.86,11.86,0,0,0-.12-1.72c-.12-.13-.18-.25-.25-.31s-.12-.13-.18-.13a.34.34,0,0,0-.31,0c-.06,0-.18.07-.24.07s-.13.06-.19.06c-.06.18-.18.43-.24.67s-.12.44-.19.68.13.68.19,1a4.28,4.28,0,0,1-.38,1.29C58.58,54.93,56.28,54,56.28,54Z"/><path class="cls-2" d="M46,70h-.46a.45.45,0,0,0-.24.06.51.51,0,0,0-.23.25.63.63,0,0,0-.12.31,5.41,5.41,0,0,1-.11.8A17.4,17.4,0,0,1,44,74.73a9.17,9.17,0,0,1-.82,1.85,10.64,10.64,0,0,1-1.46,2.27,9.47,9.47,0,0,1-2,1.53,11.69,11.69,0,0,1-1.23.68,1.31,1.31,0,0,1-.24.3v1.3c.24.12.42.24.59.3a.89.89,0,0,0,.52-.12,1.81,1.81,0,0,0,.76-.43c.36-.19.59-.37.88-.55s.41-.37.58-.5a14.85,14.85,0,0,0,1.46-1.78,11.69,11.69,0,0,0,.94-1.1,12.74,12.74,0,0,0,.76-1.23,18.31,18.31,0,0,0,1.11-3.13c.17-.93.35-1.66.4-2.21v-1.6a1.86,1.86,0,0,0-.11-.19C46.11,70.06,46.05,70.06,46,70Z"/><path class="cls-2" d="M56.12,68.81c.55,0,1.1-.06,1.54-.06a14.84,14.84,0,0,0,1.9-.24c3.62-1.23-1.78-.51-1.78-.51H55.2a4.73,4.73,0,0,0-2.58-.66c-.74-.06-1.17-.06-1.66-.06,0-.12.06-.37.06-.62s-.12-1.6-.12-2a6.65,6.65,0,0,0,.12-.92,2.2,2.2,0,0,0,.06-.56c0-.73.12-1.28-.06-1.59a1.44,1.44,0,0,0-1.23-.74c-.24.06-.55.55-.73,1a5.26,5.26,0,0,0,0,1.66l.25,3.75c-1.47,0-3.5.31-5.28.24a5,5,0,0,0-.86,0,11.08,11.08,0,0,0-3.2-.13c-1,.25-1.78.8.07,1.35a6,6,0,0,1,1.16.31h7.86c0,3.94.07,8,.17,12.16v.68c-.17.18-.1.37-.1.55s.06.25.12.37a.9.9,0,0,0,.25.18c.06.07.12.07.24.06h.49a6.42,6.42,0,0,0,1-.24v-14c.11-.06.42-.06,1.15.19h2.65A2.12,2.12,0,0,1,56.12,68.81Z"/><path class="cls-2" d="M39.89,63.1a2.75,2.75,0,0,0,1.41-.36c.38-.13.68-.2,1-.31v-.06A14.15,14.15,0,0,0,44,61.69a12.42,12.42,0,0,1,2.08-.8A17.54,17.54,0,0,1,50,59.35c1-.12,3.25,1,4.18,1.41.61.32,1.22.62,1.84.93.86.37,1.66.8,2.52,1.23a4.92,4.92,0,0,0,1.47.3,8.07,8.07,0,0,0,1.29-.06c0-2.14-.06-1.47-2.52-2.45a27.9,27.9,0,0,0-2.76-1.29.43.43,0,0,0-.31-.13c-1.1-.43-2.08-.79-3-1.11s-2.21-.67-2.76-1c-.62.19-1.05.43-2,.81a33.2,33.2,0,0,0-3.13,1.28c-.25.13-.56.25-.86.37-.93.31-1.73.67-2.46.93-.92.36-1.66.6-2.33.79a5.33,5.33,0,0,0-.37.68C38.79,63,38.42,62.86,39.89,63.1Z"/><path class="cls-2" d="M61.15,81.36a5.67,5.67,0,0,1-3.68-3.62,11.28,11.28,0,0,0-.86-1.6c-.06-.12-.12-.24-.19-.36a14.76,14.76,0,0,1-.74-1.85c-.24-.86-.42-1.53-.61-2.14s-.25-1.11-.31-1.48a.83.83,0,0,1-.24-.19c-.12-.06-.19-.06-.31-.12h-.49c-.12.31-.3.62-.44.92v1a11.12,11.12,0,0,1,.37,1.53c.19.68.56,1.54.87,2.4a14.77,14.77,0,0,0,.86,2.08c.36.62.68,1.18,1,1.6l.06.06c.31.31.62.68,1,1.11A6.25,6.25,0,0,0,58.88,82a3.73,3.73,0,0,0,1.47.86,2.39,2.39,0,0,0,1.11.06.22.22,0,0,1,.06-.18c0-.06.06-.12.06-.25s.12-.12.18-.12.07-.06.13-.06A1.92,1.92,0,0,0,61.15,81.36Z"/><path class="cls-2" d="M40.48,50.26a2.47,2.47,0,0,0-.28-.86c-.06,0-.06-.06-.11-.06s-.18-.06-.23-.06-.18-.06-.23,0-.11.06-.18.12-.05.37-.05.55a4,4,0,0,0,0,.8,3.33,3.33,0,0,0-.07.8v1.66A10.13,10.13,0,0,0,40,54.87,3.23,3.23,0,0,0,41.22,56a3,3,0,0,0,1.32.31,4.6,4.6,0,0,1,.91-.07c.07.62.12,1.17.18,1.72h.51c.18-.24.24-.3.37-.3s.19-.12.77-.19v-.73c-.46-.12-.46-.31-.4-.43s.06-.19.06-.25A3.61,3.61,0,0,1,45.8,56,5.06,5.06,0,0,0,47,55.85a3.54,3.54,0,0,0,1.23-.67,14.74,14.74,0,0,0,1-1.17V51.67c0-.49,0-.92-.1-1.28a4.81,4.81,0,0,0-.18-.86,4.62,4.62,0,0,1-.19-.53h-.15a1.48,1.48,0,0,0-.38.31v2.76c-.25.37-.43.74-.62,1-1.25,1.53-1.06.3-2.38.36v-.82a4.59,4.59,0,0,1-.4-1.34,2.55,2.55,0,0,1,.4-1.24v-.86s-.71-.13-.9-.13a.52.52,0,0,0-.3-.05s-.06,0-.06.05a1.83,1.83,0,0,0-.37.07c-.12,0-.18.06-.25.06a4.22,4.22,0,0,1-.06.8,7.47,7.47,0,0,1-.06,1.1v2.09c.06.19.12.43.17.67-1.31.75-1.94.81-2.51-1.1a5,5,0,0,1-.35-1.23A8.62,8.62,0,0,0,40.48,50.26Z"/><path class="cls-2" d="M26,103.76a5.47,5.47,0,0,0-2.11-.4A5.86,5.86,0,0,0,19.69,105a5.69,5.69,0,0,0-.06,8.07,5.77,5.77,0,0,0,4.17,1.59,5.41,5.41,0,0,0,4-1.7,6,6,0,0,0,1.26-1.88,5.61,5.61,0,0,0,.43-2.18A5.41,5.41,0,0,0,27.76,105,5.59,5.59,0,0,0,26,103.76Zm-2.31,10.4a2.8,2.8,0,0,1-2.48-1.34,6.87,6.87,0,0,1-.87-3.77,6.67,6.67,0,0,1,.94-3.81,2.82,2.82,0,0,1,2.41-1.4,2.94,2.94,0,0,1,2.56,1.32,6.55,6.55,0,0,1,.92,3.79Q27.15,114.16,23.67,114.16Z"/><path class="cls-2" d="M43.48,113.74a3.46,3.46,0,0,1-.65-.18.83.83,0,0,1-.47-.42,3.4,3.4,0,0,1-.08-.88v-5.61a3.17,3.17,0,0,0-1-2.5,4,4,0,0,0-2.77-.86,4.65,4.65,0,0,0-4.17,2.4c0-.44-.08-1-.13-1.57s-.2-.91-.45-.91a7.14,7.14,0,0,0-.77.25,12.12,12.12,0,0,1-1.63.45c-.63.12-.94.26-.94.39s.17.2.51.24a2.69,2.69,0,0,1,.71.16,1,1,0,0,1,.49.58,4.86,4.86,0,0,1,.11,1.19v5.73a2.82,2.82,0,0,1,.18.93.82.82,0,0,1-.48.45,3.61,3.61,0,0,1-.68.19c-.32.06-.48.16-.48.29s.12.26.36.26l1.07-.09a12.31,12.31,0,0,1,1.37,0c.16,0,.59,0,1.28.07l1.14.07c.26,0,.38-.07.38-.21s-.15-.28-.47-.34a5.07,5.07,0,0,1-.69-.19.88.88,0,0,1-.49-.45c-.06-.17.51-.93.51-.93v-4.67a3.37,3.37,0,0,1,.85-2.34,2.62,2.62,0,0,1,2-.93c1.42,0,2.13.8,2.13,2.41v5.59a3,3,0,0,1-.09.88.78.78,0,0,1-.45.42,2.92,2.92,0,0,1-.64.18q-.45.09-.45.27c0,.17.12.25.36.25l1-.09c.3,0,.72,0,1.28,0l1.21.06,1.09.07c.23,0,.34-.07.34-.2S43.77,113.8,43.48,113.74Z"/><path class="cls-2" d="M98,113a1.3,1.3,0,0,0-.38.24,1,1,0,0,1-.58.23c-.52,0-.78-.42-.78-1.27v-6c0-1.8-1.34-2.71-4-2.71a6.49,6.49,0,0,0-3,.57q-1.08.56-1.08,1.38c0,.58.27.87.82.87a.85.85,0,0,0,.78-.33,3,3,0,0,0,.23-.89c.1-.75.77-1.13,2-1.13,1.5,0,2.25.61,2.25,1.84v1.87c-4.32,1.58-6.49,3.12-6.49,4.63a2,2,0,0,0,.65,1.57,2.5,2.5,0,0,0,1.75.58,5.61,5.61,0,0,0,4-1.67,2,2,0,0,0,2.07,1.67,2.22,2.22,0,0,0,1.36-.45c.4-.31.59-.57.59-.79S98.16,113,98,113Zm-3.74-1.43a1.83,1.83,0,0,1-.9,1.46,3.2,3.2,0,0,1-1.9.66,1.48,1.48,0,0,1-1.18-.49,1.88,1.88,0,0,1-.43-1.31c0-1.33,1.47-2.58,4.41-3.73Z"/><path class="cls-2" d="M56.65,102.2l-1.08-.71c-.32.27-.62.5-.9.7a10.23,10.23,0,0,1-.89.56,8,8,0,0,1-1,.51l0,0a2.67,2.67,0,0,1-1.24.16l-.26,0h0c-.21,0-.42,0-.64,0a4.76,4.76,0,0,0-3.19,1.08,3.76,3.76,0,0,0-1.32,2.85,3.33,3.33,0,0,0,.7,2.13,4.17,4.17,0,0,0,2,1.39c-1.5.29-2.24,1-2.24,2.17a1.78,1.78,0,0,0,1,1.71,7,7,0,0,0,3.07.52,7.87,7.87,0,0,1,3.21.47,1.9,1.9,0,0,1,.94,1.88,2.46,2.46,0,0,1-1,2.06,4.29,4.29,0,0,1-2.7.75,5,5,0,0,1-2.82-.68,2.09,2.09,0,0,1-1-1.82,2.31,2.31,0,0,1,.32-1.28,1.83,1.83,0,0,1,.74-.7c0-.23-.27-.34-.82-.34a1.68,1.68,0,0,0-1.25.6,2,2,0,0,0-.56,1.41A2.88,2.88,0,0,0,47.1,120a6.59,6.59,0,0,0,3.76,1,6.47,6.47,0,0,0,4-1.13,3.65,3.65,0,0,0,1.47-3.07,3.25,3.25,0,0,0-1.29-2.89A7.3,7.3,0,0,0,51,113c-2.2,0-3.3-.26-3.3-.79a.89.89,0,0,1,.72-.86,7.7,7.7,0,0,1,2.25-.24,4.87,4.87,0,0,0,3.3-1,3.49,3.49,0,0,0,1.11-2.77,4.11,4.11,0,0,0-.84-2.43,2.58,2.58,0,0,0-.43-.47h0a4.2,4.2,0,0,0-1-.65l.32-.08,1-.27c.32-.09.63-.19.95-.31s.68-.27,1.08-.44l.37-.06c.18,0,.29-.09.32-.17S56.79,102.31,56.65,102.2Zm-4.75,7.57a2.13,2.13,0,0,1-1.81.87,2,2,0,0,1-1.75-.91,4.28,4.28,0,0,1-.64-2.51,4.06,4.06,0,0,1,.67-2.45,2,2,0,0,1,1.67-.92,2.18,2.18,0,0,1,1.85.89,4.17,4.17,0,0,1,.66,2.53A4.09,4.09,0,0,1,51.9,109.77Z"/><path class="cls-2" d="M71.2,112.52l-.07.08a4.11,4.11,0,0,1-3,1.29,3.18,3.18,0,0,1-2.55-1.26,5.76,5.76,0,0,1-1-3.56,6.62,6.62,0,0,1,.94-3.82,2.93,2.93,0,0,1,2.54-1.36,1.73,1.73,0,0,1,1.11.27,2.55,2.55,0,0,1,.48.87,1,1,0,0,0,1,.7.69.69,0,0,0,.77-.78,1.33,1.33,0,0,0-.84-1.13,4.71,4.71,0,0,0-2.25-.46,5.94,5.94,0,0,0-4.18,1.48,5.55,5.55,0,0,0-1.95,4.28,5.44,5.44,0,0,0,1.47,4.06,5.55,5.55,0,0,0,4.08,1.46l.53,0h0a3.24,3.24,0,0,0,3.14-2l-.16-.2A.52.52,0,0,0,71.2,112.52Z"/><path class="cls-2" d="M85.48,113.73a3.46,3.46,0,0,1-.65-.18.83.83,0,0,1-.47-.42,3.31,3.31,0,0,1-.08-.87v-5.79a2.79,2.79,0,0,0-.85-2.22,3.74,3.74,0,0,0-2.51-.74,4.16,4.16,0,0,0-3.64,1.88V97.76q0-.36-.24-.36L76,97.65l-.54.1-1.9.3s-.12,0-.05.11l.43.47c1-.12,1.26.26,1.35.54a4,4,0,0,1,0,.68v12a2.92,2.92,0,0,1-.09.87.73.73,0,0,1-.45.42,2.33,2.33,0,0,1-.64.18c-.3.07-.45.16-.45.28s.12.25.36.25l1-.09c.3,0,.72,0,1.28,0l1.21.06,1.09.07c.23,0,.34-.07.34-.21s-.14-.25-.44-.32a2.83,2.83,0,0,1-.65-.18.77.77,0,0,1-.46-.42,2.83,2.83,0,0,1-.09-.87v-4.29a3.32,3.32,0,0,1,.86-2.33,2.65,2.65,0,0,1,2-.92c1.41,0,2.12.8,2.12,2.39v5.6a3,3,0,0,1-.09.87.78.78,0,0,1-.45.42,2.92,2.92,0,0,1-.64.18c-.3.06-.45.15-.45.28s.11.24.34.24l1-.08c.3,0,.73,0,1.29,0l1.21.07,1.07.06c.24,0,.36-.06.36-.2S85.77,113.79,85.48,113.73Z"/><path class="cls-2" d="M16.66,107.47c-.14,0-1.08,0-2.8.14-.64,0-1.2,0-1.65,0l-1.13-.09c-.37,0-.55.09-.55.26s.2.25.61.32.66.13.74.16c.56.21.85.82.85,1.83a4,4,0,0,1-1,3,4.52,4.52,0,0,1-3.19,1,4.76,4.76,0,0,1-4.06-2A9.41,9.41,0,0,1,3,106.34a10.25,10.25,0,0,1,1.51-6.09,5.14,5.14,0,0,1,4.43-2.06,4.56,4.56,0,0,1,4.59,3.38,4.67,4.67,0,0,1,.21.71c.07.29.16.43.27.43s.22-.1.22-.29l.1-2.56h0l.09-1.81-.46-.14a1.93,1.93,0,0,1-.28.86.39.39,0,0,1-.44.07c-.67-.25-1.33-.51-2-.77a9.39,9.39,0,0,0-2.68-.36,8.14,8.14,0,0,0-6.17,2.49A9,9,0,0,0,0,106.68a7.64,7.64,0,0,0,2.17,5.62A7.84,7.84,0,0,0,8,114.64a8.54,8.54,0,0,0,3.26-.65c.75-.36,1.51-.74,2.27-1.12a3.68,3.68,0,0,1,.83-.26,5.37,5.37,0,0,1,1-.1c-.05-.37-.09-.67-.1-.92s0-.57,0-1v-.27a6.11,6.11,0,0,1,.11-1.34,1,1,0,0,1,.44-.62,2.63,2.63,0,0,1,.81-.33c.32-.08.48-.18.48-.31S17,107.47,16.66,107.47Z"/></g></g></svg>