<svg xmlns="http://www.w3.org/2000/svg" viewBox="0 0 16.57 16.57"><defs><style>.cls-1{fill:#382b20;}</style></defs><g id="レイヤー_2" data-name="レイヤー 2"><g id="SNS"><path class="cls-1" d="M11.72,16.57H4.85c-.2,0-.39-.1-.58-.12A4.4,4.4,0,0,1,.15,12.7l-.15-1V4.85c0-.24.1-.48.12-.71A4.33,4.33,0,0,1,3.41.27C3.88.15,4.37.09,4.85,0h6.87a3.71,3.71,0,0,0,.58.11,4.4,4.4,0,0,1,4.11,3.76c.06.33.1.65.16,1v6.87c-.05.24-.1.47-.13.71a4.33,4.33,0,0,1-3.29,3.87C12.68,16.42,12.2,16.48,11.72,16.57ZM1.44,8.21h.08c0,1.1,0,2.19,0,3.29,0,.27.06.54.09.81a2.71,2.71,0,0,0,2.62,2.6c2.69.09,5.38.1,8.07,0a2.61,2.61,0,0,0,2.63-2.65q.13-4,0-8A2.6,2.6,0,0,0,12.3,1.64q-4-.13-8.07,0a2.66,2.66,0,0,0-2.6,2.61C1.51,5.57,1.5,6.89,1.44,8.21Z"/><path class="cls-1" d="M8.25,4A4.25,4.25,0,1,1,4,8.3,4.26,4.26,0,0,1,8.25,4ZM11,8.27A2.76,2.76,0,1,0,8.28,11,2.75,2.75,0,0,0,11,8.27Z"/><path class="cls-1" d="M12.68,4.85a1,1,0,1,1,0-2,1,1,0,0,1,1,1A1,1,0,0,1,12.68,4.85Z"/></g></g></svg>