<svg xmlns="http://www.w3.org/2000/svg" viewBox="0 0 15.38 15.38"><defs><style>.cls-1{fill:#fff;}</style></defs><g id="レイヤー_2" data-name="レイヤー 2"><g id="ヘッダー"><path class="cls-1" d="M10.88,15.38H4.5A5.17,5.17,0,0,0,4,15.27,4.09,4.09,0,0,1,.14,11.79c-.05-.31-.09-.61-.14-.91V4.5c0-.22.09-.44.11-.66A4,4,0,0,1,3.17.25C3.6.14,4.06.08,4.5,0h6.38a5.17,5.17,0,0,0,.54.11,4.09,4.09,0,0,1,3.82,3.48c0,.3.09.61.14.91v6.38c0,.22-.09.44-.11.66a4,4,0,0,1-3.06,3.59C11.78,15.24,11.32,15.3,10.88,15.38ZM1.33,7.63h.08c0,1,0,2,0,3.06a6,6,0,0,0,.08.74,2.54,2.54,0,0,0,2.43,2.43q3.73.12,7.49,0a2.42,2.42,0,0,0,2.44-2.46C14,8.93,14,6.45,13.86,4a2.42,2.42,0,0,0-2.44-2.46q-3.75-.12-7.49,0A2.49,2.49,0,0,0,1.51,4C1.4,5.17,1.39,6.4,1.33,7.63Z"/><path class="cls-1" d="M7.66,3.74a4,4,0,1,1-3.92,4A4,4,0,0,1,7.66,3.74Zm2.59,3.94a2.56,2.56,0,1,0-2.57,2.57A2.54,2.54,0,0,0,10.25,7.68Z"/><path class="cls-1" d="M11.77,4.5a.92.92,0,0,1,0-1.83.93.93,0,0,1,.9.94A.92.92,0,0,1,11.77,4.5Z"/></g></g></svg>