<svg xmlns="http://www.w3.org/2000/svg" viewBox="0 0 78.54 70.62"><defs><style>.cls-1{fill:#382b20;}.cls-2{fill:none;stroke:#382b20;stroke-linecap:round;stroke-linejoin:round;stroke-width:1.5px;}</style></defs><g id="レイヤー_2" data-name="レイヤー 2"><g id="メニュー"><path class="cls-1" d="M2.59,36.88c.18.09.24.19.24.32a.74.74,0,0,1-.11.35,3.13,3.13,0,0,0-.29.88,31.67,31.67,0,0,0-.8,5.83c0,.63,0,1.37.05,2,.32-.73.66-1.42,1-2.22a5.13,5.13,0,0,0,.56,1,.32.32,0,0,1,.1.22.45.45,0,0,1-.1.26A9.22,9.22,0,0,0,2.42,48a3.09,3.09,0,0,0,0,.85c0,.11,0,.16-.19.21a7.69,7.69,0,0,1-1.2.27c-.18.05-.24,0-.32-.19A14.86,14.86,0,0,1,0,44.26a34.71,34.71,0,0,1,.66-6.07A8.29,8.29,0,0,0,.77,36.3,12.36,12.36,0,0,1,2.59,36.88ZM8.1,41.15c-1.09,0-2.21.06-3.3,0-.21,0-.27,0-.29-.2a10.48,10.48,0,0,1-.11-1.46,23.42,23.42,0,0,0,3.65.05c0-.58,0-1.09,0-1.68a7,7,0,0,0-.21-1.57,8.78,8.78,0,0,1,1.93.3c.18,0,.29.13.29.27a.78.78,0,0,1-.09.28,1.49,1.49,0,0,0-.13.56c0,.54,0,1,0,1.69.75-.06,1.58-.17,2.27-.28.19-.05.22,0,.26.19a6.72,6.72,0,0,1,.09,1.13c0,.15-.06.23-.17.24A16.75,16.75,0,0,1,9.78,41c0,1.79,0,2.91.11,4.29a10.19,10.19,0,0,1,2.66,1.54c.14.09.16.14.08.32a8.54,8.54,0,0,1-.74,1.23c-.05.06-.09.1-.14.1a.28.28,0,0,1-.15-.08A9.29,9.29,0,0,0,9.88,47.1c-.13,1.35-1,2.08-2.93,2.08s-2.87-.86-2.87-2.24,1.19-2.25,2.8-2.25a7.51,7.51,0,0,1,1.28.12C8.13,43.58,8.12,42.41,8.1,41.15Zm-1.3,5c-.75,0-1.2.27-1.2.77s.35.8,1.3.8c.8,0,1.31-.47,1.31-1,0-.12,0-.2,0-.32A4.54,4.54,0,0,0,6.8,46.13Z"/><path class="cls-1" d="M20.4,36.46c.28.06.39.14.39.3a1.63,1.63,0,0,1-.16.53,9.46,9.46,0,0,0-.23,2c-.17,2.78-.24,4.25-.24,6.14,0,1.73.2,2,1.48,2a8.43,8.43,0,0,0,5.6-2.94A5.36,5.36,0,0,0,27.61,46a1,1,0,0,1,.12.38c0,.15-.06.28-.32.5a9.09,9.09,0,0,1-6.06,2.4c-2.05,0-3-.81-3-3.26,0-2.69.14-5,.22-6.92a10.74,10.74,0,0,0-.16-2.93A15.84,15.84,0,0,1,20.4,36.46Zm4.85,1.06c.08-.07.15-.05.24,0A7,7,0,0,1,27,39.26a.16.16,0,0,1,0,.26l-.68.49A.17.17,0,0,1,26,40a7.72,7.72,0,0,0-1.62-1.86Zm1.43-1c.09-.07.14,0,.24,0a6.72,6.72,0,0,1,1.52,1.65.18.18,0,0,1-.05.28l-.64.5a.16.16,0,0,1-.27,0,7.73,7.73,0,0,0-1.6-1.84Z"/><path class="cls-1" d="M40.13,37.32a3.91,3.91,0,0,0,0-1.08,6.48,6.48,0,0,1,1.89.64c.18.08.26.17.26.28a.62.62,0,0,1-.11.28,2.1,2.1,0,0,0-.32.59c-.1.25-.24.64-.45,1.28A4.62,4.62,0,0,1,45.7,44c0,2.85-1.73,4.56-4.91,5.35-.35.08-.47,0-.66-.28a3.26,3.26,0,0,0-1-1.05c2.18-.45,4.79-1.44,4.79-4.23a3,3,0,0,0-2.88-3,29.35,29.35,0,0,1-2.34,4.67,5.08,5.08,0,0,0,.69.82,4.58,4.58,0,0,1-1,1,.33.33,0,0,1-.44,0c-.13-.13-.26-.26-.44-.47-1,1.11-1.8,1.52-2.67,1.52-1.22,0-2.1-1-2.1-2.59A6.1,6.1,0,0,1,35,41c-.18-.61-.34-1.41-.5-2.11A7.47,7.47,0,0,0,34,37.42a6.59,6.59,0,0,1,1.81.26c.25.06.3.17.3.46a4.7,4.7,0,0,0,.07.91c.08.47.13.76.22,1.14a9.08,9.08,0,0,1,3.27-.91A12.76,12.76,0,0,0,40.13,37.32Zm-5.78,8.15c0,.55.23,1,.56,1,.48,0,1-.35,1.67-1.17a16.79,16.79,0,0,1-1.11-2.59A4.48,4.48,0,0,0,34.35,45.47ZM37.68,44a18.7,18.7,0,0,0,1.52-3.24,6.4,6.4,0,0,0-2.41.9A11.68,11.68,0,0,0,37.68,44Z"/><path class="cls-1" d="M56.88,39.12c-2,.36-3.67.7-5.38,1.05-.61.15-.77.18-1,.26a.87.87,0,0,1-.35.13.4.4,0,0,1-.31-.24,12.13,12.13,0,0,1-.59-1.73,23,23,0,0,0,2.55-.27c2-.29,5.49-.82,9.62-1.36.24,0,.32.06.33.17a9.67,9.67,0,0,1,.18,1.41c0,.19-.1.24-.3.24a7.39,7.39,0,0,0-2,.35c-2.72.93-4.08,2.8-4.08,4.72s1.47,3.19,4.26,3.37c.26,0,.35.06.35.24A5.78,5.78,0,0,1,60,48.83c-.05.24-.12.34-.31.34-2.82,0-5.91-1.62-5.91-5,0-2.27,1.14-3.81,3.08-5.07Z"/><path class="cls-1" d="M73,39a20.1,20.1,0,0,1-2,6.9,3,3,0,0,1-2.72,1.84c-1.41,0-2.83-1.51-2.83-4.12a5.89,5.89,0,0,1,1.81-4.16,7,7,0,0,1,5.2-2.05c3.84,0,6.1,2.37,6.1,5.56,0,3-1.68,4.85-4.93,5.82-.34.1-.48,0-.69-.28a3.35,3.35,0,0,0-1.12-1c2.7-.64,4.83-1.76,4.83-4.79A3.63,3.63,0,0,0,73.05,39Zm-4.59,1.55a4.62,4.62,0,0,0-1.25,3c0,1.47.59,2.29,1.09,2.29s.77-.21,1.2-1a18.56,18.56,0,0,0,1.7-5.72A4.79,4.79,0,0,0,68.39,40.54Z"/><path class="cls-1" d="M16,61.41H10.4a23,23,0,0,0-2.4.1c-.17,0-.24-.08-.24-.27,0-.43-.08-1.19-.08-1.72a22,22,0,0,0,2.68.12h4.75c.83,0,1.68,0,2.53-.07.26,0,.34.07.32.28,0,.84,0,1.68,0,2.52V66.2c0,1.17.05,2.45.06,2.9,0,.16-.06.21-.29.22a11.06,11.06,0,0,1-1.41,0c-.25,0-.3,0-.3-.27v-.64H10.48c-1,0-1.85,0-2.62.06-.15,0-.21-.06-.23-.24,0-.41-.08-1-.08-1.66.76.05,1.69.08,3,.08H16Zm1.81-4.13c.08-.06.14,0,.24,0A7.19,7.19,0,0,1,19.56,59a.16.16,0,0,1,0,.25l-.67.5a.16.16,0,0,1-.27-.05A8.1,8.1,0,0,0,17,57.88Zm1.42-1c.1-.06.15,0,.24,0A6.34,6.34,0,0,1,21,57.92a.19.19,0,0,1,0,.29l-.64.5a.17.17,0,0,1-.28-.05,7.34,7.34,0,0,0-1.6-1.84Z"/><path class="cls-1" d="M25.65,58.58a.31.31,0,0,1,.23-.13.4.4,0,0,1,.2.08,16.22,16.22,0,0,1,3.06,2.28c.1.09.14.16.14.22a.37.37,0,0,1-.09.21c-.24.32-.77,1-1,1.2-.08.08-.13.13-.2.13s-.12,0-.2-.13a17,17,0,0,0-3.27-2.61C24.88,59.4,25.35,58.9,25.65,58.58ZM27,67a23.24,23.24,0,0,0,4.61-3A23.86,23.86,0,0,0,36,59.68a7.3,7.3,0,0,0,.45,1.88.75.75,0,0,1,.08.3c0,.15-.08.27-.26.48a26.78,26.78,0,0,1-3.68,3.4,34.52,34.52,0,0,1-4.83,3.13,6.64,6.64,0,0,0-1.08.74.32.32,0,0,1-.56,0,11.59,11.59,0,0,1-1.28-1.77A9.82,9.82,0,0,0,27,67Z"/><path class="cls-1" d="M47.07,62.45c0-.51,0-1.15,0-1.61,0-.21,0-.42-.08-.74a36.84,36.84,0,0,1-3.8.51c-.24,0-.33-.17-.4-.35a4.2,4.2,0,0,0-.81-1.1,30.3,30.3,0,0,0,4.75-.6,20.68,20.68,0,0,0,2.64-.68,4.71,4.71,0,0,0,1.38-.72A8.09,8.09,0,0,1,52,58.28a.6.6,0,0,1,.21.44c0,.18-.16.21-.42.23s-.67.19-1,.27c-1,.27-2,.51-2.89.71a4.8,4.8,0,0,1,1,.2c.13,0,.21.12.21.23a.75.75,0,0,1-.1.27,1.46,1.46,0,0,0-.11.54c0,.36,0,.72,0,1.27h2c1,0,2.36-.08,3.09-.11.16,0,.16.08.17.25a10.92,10.92,0,0,1,0,1.28c0,.23,0,.29-.21.29-1,0-1.93-.05-3.1-.05h-2a8.73,8.73,0,0,1-.8,3.22,7.66,7.66,0,0,1-2.55,3,.44.44,0,0,1-.27.12.71.71,0,0,1-.29-.1,6.19,6.19,0,0,0-1.69-.61,7.08,7.08,0,0,0,3-3A6.47,6.47,0,0,0,47,64.1H44.16c-.58,0-1.77,0-2.55.07-.21,0-.26-.11-.3-.37a7.13,7.13,0,0,1-.16-1.46c1.13.1,2.32.11,3.1.11Z"/><path class="cls-1" d="M62.1,65a12.84,12.84,0,0,0-1.76.62.85.85,0,0,1-.29.08c-.11,0-.19-.06-.27-.22A8.78,8.78,0,0,1,59.22,64a20.58,20.58,0,0,0,2.43-.53l1-.26-.35-1.34a6.11,6.11,0,0,0-.66-1.62c.66-.08,1.46-.17,1.87-.17s.37.09.34.32a2.51,2.51,0,0,0,.1,1.15l.3,1.2,3.47-.88a1.8,1.8,0,0,0,.8-.35.28.28,0,0,1,.2-.1.53.53,0,0,1,.27.15,7.67,7.67,0,0,1,.94.8.36.36,0,0,1,.13.24.48.48,0,0,1-.17.32,1.21,1.21,0,0,0-.26.33,18.63,18.63,0,0,1-1.81,3c-.08.1-.14.15-.24.15a.51.51,0,0,1-.24-.08A4.51,4.51,0,0,0,66,65.89a11.62,11.62,0,0,0,1.7-2.44l-3.09.81.73,2.9c.28,1,.5,1.79.74,2.69a.31.31,0,0,1-.21.43,5.12,5.12,0,0,1-1,.32c-.21.05-.34,0-.4-.24-.2-.89-.42-1.78-.65-2.67l-.75-3Z"/><path class="cls-2" d="M38.38,5.88S32.37,11,29.54,11a5.13,5.13,0,1,1,0-10.26C32.37.75,38.38,5.88,38.38,5.88Z"/><path class="cls-2" d="M38.38,5.88S44.4,11,47.23,11a5.13,5.13,0,1,0,0-10.26C44.4.75,38.38,5.88,38.38,5.88Z"/><line class="cls-2" x1="38.38" y1="19.56" x2="38.38" y2="5.88"/><path class="cls-2" d="M49.32,22.52c-2.33-1.78-6.35-3-10.94-3s-8.6,1.18-10.93,3"/><line class="cls-2" x1="31.94" y1="5.88" x2="38.38" y2="5.88"/><line class="cls-2" x1="44.83" y1="5.88" x2="38.38" y2="5.88"/></g></g></svg>