<svg xmlns="http://www.w3.org/2000/svg" viewBox="0 0 177.85 180.49"><defs><style>.cls-1{fill:#382b20;}</style></defs><g id="レイヤー_2" data-name="レイヤー 2"><g id="メニュー"><path class="cls-1" d="M105.91,10.5l-8.7-1.4-.65,4a20.88,20.88,0,0,0-.31,2.6,1.37,1.37,0,0,0,.35,1,2.81,2.81,0,0,0,1.47.54l.43.07-.09.56-7.5-1.2.09-.56.43.07a2.93,2.93,0,0,0,1.53,0,1.26,1.26,0,0,0,.66-.76,17.39,17.39,0,0,0,.54-2.64l1.31-8.18A17.21,17.21,0,0,0,95.77,2a1.15,1.15,0,0,0-.37-.88A3.85,3.85,0,0,0,93.8.61l-.31,0L93.58,0l7.5,1.2-.09.57-.31-.05a4.2,4.2,0,0,0-1.63-.06,1.12,1.12,0,0,0-.63.68A16,16,0,0,0,97.87,5l-.53,3.31,8.71,1.39.52-3.31a17.83,17.83,0,0,0,.31-2.59,1.17,1.17,0,0,0-.36-.87,3.91,3.91,0,0,0-1.61-.49l-.44-.07.09-.56L112.15,3l-.09.57-.25,0a4.25,4.25,0,0,0-1.64-.06,1.11,1.11,0,0,0-.64.68A16.4,16.4,0,0,0,109,6.73l-1.31,8.17a21.79,21.79,0,0,0-.32,2.59,1.29,1.29,0,0,0,.35,1,2.81,2.81,0,0,0,1.48.54l.38.06-.09.56-7.59-1.21.09-.57.58.1a2.86,2.86,0,0,0,1.51,0,1.26,1.26,0,0,0,.66-.76,20.93,20.93,0,0,0,.54-2.64Z"/><path class="cls-1" d="M115.26,12.6a8.07,8.07,0,0,1,5.06-4.55,9.37,9.37,0,0,1,6.9.67,9.58,9.58,0,0,1,4.95,4.94,8.07,8.07,0,0,1-.35,6.91,8.4,8.4,0,0,1-5,4.65,9.29,9.29,0,0,1-7.07-.67,9.26,9.26,0,0,1-4.92-5A8.45,8.45,0,0,1,115.26,12.6Zm2.54,1.3c-1.17,2.45-1.55,4.53-1.16,6.22a5.84,5.84,0,0,0,3.53,3.94,5.51,5.51,0,0,0,4.94.09c1.59-.76,3-2.35,4.11-4.79a9.65,9.65,0,0,0,1.12-6.15A5.62,5.62,0,0,0,127,9.29a5.59,5.59,0,0,0-5.1-.16C120.3,9.9,119,11.49,117.8,13.9Z"/><path class="cls-1" d="M141.9,40.68l-.41-.38,5.68-13.71-12.75,7.16-.44-.4,5.94-12.42c.54-1.13.89-1.89,1-2.29a1.87,1.87,0,0,0,.12-1.07,2.39,2.39,0,0,0-.74-1.11l.39-.43,4.65,4.31-.38.42a3.19,3.19,0,0,0-1.31-.76.85.85,0,0,0-.72.31,10.08,10.08,0,0,0-1.05,1.9l-4.47,9.27,12.45-7,.51.47-5.57,13.32,8-4.83a12,12,0,0,0,2-1.4,1.51,1.51,0,0,0-.17-2.4l.39-.42,3.38,3.13-.39.42a1.93,1.93,0,0,0-1.63-.48,13.06,13.06,0,0,0-3.13,1.54Z"/><path class="cls-1" d="M163.64,47.91l-.23-.52,3.73-1.59,6.75,14.93-3.67,1.75L170,62a6.6,6.6,0,0,0,1.88-1.71,2.06,2.06,0,0,0,.38-1.35,7.61,7.61,0,0,0-.65-1.85l-1.11-2.47-10.86,4.9a21.29,21.29,0,0,0-2.34,1.16,1.29,1.29,0,0,0-.63.84,2.8,2.8,0,0,0,.36,1.53l.34.74-.52.24-3.46-7.67.52-.24.36.8a2.85,2.85,0,0,0,.86,1.25,1.26,1.26,0,0,0,1,.14,18.37,18.37,0,0,0,2.51-1L169.5,52.4l-1-2.28a9.88,9.88,0,0,0-1.05-1.93,2,2,0,0,0-1.29-.57A6.54,6.54,0,0,0,163.64,47.91Z"/><path class="cls-1" d="M167.8,68.8a8,8,0,0,1,6.6,1.64,9.36,9.36,0,0,1,3.31,6.1,9.56,9.56,0,0,1-1.32,6.87A8.1,8.1,0,0,1,170.47,87a8.43,8.43,0,0,1-6.66-1.55,10.28,10.28,0,0,1-2-13.12A8.45,8.45,0,0,1,167.8,68.8Zm.34,2.83c-2.68.41-4.62,1.25-5.8,2.52a5.89,5.89,0,0,0-1.29,5.13,5.52,5.52,0,0,0,2.7,4.15c1.51.88,3.6,1.13,6.27.72a9.68,9.68,0,0,0,5.72-2.51,5.64,5.64,0,0,0,1.36-5,5.57,5.57,0,0,0-2.73-4.31Q172.11,71,168.14,71.63Z"/><path class="cls-1" d="M169.86,101.36a8,8,0,0,1,5.44,4.08,9.38,9.38,0,0,1,.69,6.91,9.52,9.52,0,0,1-3.89,5.81,8.08,8.08,0,0,1-6.84,1,8.44,8.44,0,0,1-5.53-4A10.26,10.26,0,0,1,163,102.28,8.44,8.44,0,0,1,169.86,101.36Zm-.78,2.75q-3.95-1-6.33.07a5.87,5.87,0,0,0-3.18,4.22,5.51,5.51,0,0,0,.88,4.87c1,1.41,2.88,2.44,5.49,3.1a9.64,9.64,0,0,0,6.25-.09,6.37,6.37,0,0,0,2.36-9.11Q173,105.09,169.08,104.11Z"/><path class="cls-1" d="M147.24,134.54l2.27-3.93a20.31,20.31,0,0,1,5.69-1c.92-.07,1.83-.19,2.73-.33a8.83,8.83,0,0,0,1.7-.39,1.69,1.69,0,0,0,.7-.76l.34-.58-3.25-1.87a22.09,22.09,0,0,0-2.31-1.22,1.35,1.35,0,0,0-1,0,2.92,2.92,0,0,0-1,1.2l-.4.7-.5-.29,4-7,.5.29-.27.47a3,3,0,0,0-.52,1.44,1.25,1.25,0,0,0,.48.88,18.74,18.74,0,0,0,2.28,1.44l7.17,4.14a18.06,18.06,0,0,0,2.32,1.2,1.09,1.09,0,0,0,.94,0,3.94,3.94,0,0,0,1-1.33l.14-.25.5.29-1.1,2.15c-.74,1.43-1.34,2.56-1.81,3.38a14.22,14.22,0,0,1-2.35,3.18,5.27,5.27,0,0,1-2.5,1.39,3.5,3.5,0,0,1-2.58-.41,3.81,3.81,0,0,1-1.84-2.47,6.1,6.1,0,0,1,.53-3.83q-1,.66-4.9,1.11a17.18,17.18,0,0,0-4.43.93,4.52,4.52,0,0,0-2,1.82Zm13.93-6.7q-.45.81-.9,1.71a7,7,0,0,0-.63,1.63,3.14,3.14,0,0,0,0,1.36,3.06,3.06,0,0,0,.62,1.18,5.07,5.07,0,0,0,1.36,1.09,4.33,4.33,0,0,0,2.92.65c.91-.16,1.86-1.1,2.86-2.83.15-.26.31-.58.48-.94Z"/><path class="cls-1" d="M157.44,148.38l-1.9,2c-1.58,1.69-2.67,2.82-3.24,3.38a12.52,12.52,0,0,1-5,3.25,7.51,7.51,0,0,1-4.41-.06,9.61,9.61,0,0,1-3.88-2.54,10.09,10.09,0,0,1-2-2.83,7.2,7.2,0,0,1-.66-2.91,6.63,6.63,0,0,1,.55-2.68,9.33,9.33,0,0,1,1.31-2.18,30.41,30.41,0,0,1,2.25-2.36l5.39-5.19.39.41-.5.48a3,3,0,0,0-.89,1.24,1.3,1.3,0,0,0,.21,1,18.82,18.82,0,0,0,1.79,2l5.65,5.86a18.64,18.64,0,0,0,1.9,1.79,1.13,1.13,0,0,0,.92.24,4.12,4.12,0,0,0,1.35-1l.36-.35Zm-4,3.37-7.84-8.12a31.89,31.89,0,0,0-2.31-2.25,1.29,1.29,0,0,0-1.1-.34,4.25,4.25,0,0,0-1.63,1.16,9.34,9.34,0,0,0-2.18,3,5,5,0,0,0-.06,3.36,9.64,9.64,0,0,0,2.46,3.92,12.37,12.37,0,0,0,3,2.36,6.86,6.86,0,0,0,3.05.86,5.34,5.34,0,0,0,2.64-.56,11.26,11.26,0,0,0,2.58-2C152.58,152.69,153,152.23,153.46,151.75Z"/><path class="cls-1" d="M122,161.19l-.52.3-2.32-4.73,12.1-7,.29.49-.3.18c-.73.42-1.14.79-1.24,1.1a1.54,1.54,0,0,0,0,1,19.7,19.7,0,0,0,1.24,2.33l4.14,7.17a18.06,18.06,0,0,0,1.37,2.14,1.21,1.21,0,0,0,.85.5,3.52,3.52,0,0,0,1.5-.59l.29.49L129,170.59l-2.45-3.44.5-.3a6.48,6.48,0,0,0,2.1,1.68,2.41,2.41,0,0,0,1.66.12,11.7,11.7,0,0,0,2.32-1.12l2-1.17-3.55-6.13-1.56.9a4.68,4.68,0,0,0-1.38,1.05,1.06,1.06,0,0,0-.24.88,5.85,5.85,0,0,0,.7,1.52l-.5.3-2.9-5,.51-.3a4.85,4.85,0,0,0,1.15,1.52,1.16,1.16,0,0,0,.91.19,5.79,5.79,0,0,0,1.4-.65l1.61-.93-2-3.46c-1-1.73-1.7-2.68-2.1-2.86s-1.09,0-2.06.59l-1.09.63a6,6,0,0,0-1.73,1.39,3.94,3.94,0,0,0-.71,2A8.21,8.21,0,0,0,122,161.19Z"/><path class="cls-1" d="M99.35,162.93l4.37-1.22a19.83,19.83,0,0,1,4.76,3.27c.72.59,1.44,1.15,2.18,1.67a8.73,8.73,0,0,0,1.49.92,1.77,1.77,0,0,0,1,0l.65-.18-1-3.61a23.27,23.27,0,0,0-.79-2.49,1.27,1.27,0,0,0-.73-.74,2.81,2.81,0,0,0-1.57.12l-.78.22-.15-.55,7.78-2.17.16.55-.53.15a2.87,2.87,0,0,0-1.37.66,1.23,1.23,0,0,0-.28,1,18,18,0,0,0,.61,2.62l2.23,8a19.45,19.45,0,0,0,.8,2.48,1.11,1.11,0,0,0,.7.64,3.83,3.83,0,0,0,1.67-.23l.27-.08.16.55-2.29.77c-1.54.51-2.76.89-3.67,1.14a14.57,14.57,0,0,1-3.9.63,5.26,5.26,0,0,1-2.75-.76,3.46,3.46,0,0,1-1.56-2.1,3.73,3.73,0,0,1,.42-3.05,6.08,6.08,0,0,1,3.06-2.37c-.77-.14-2.2-1-4.28-2.63a16.87,16.87,0,0,0-3.81-2.44,4.47,4.47,0,0,0-2.72-.12Zm14.63,5-1.84.59a7.39,7.39,0,0,0-1.59.73,3,3,0,0,0-1,.95,3.11,3.11,0,0,0-.39,1.28,5,5,0,0,0,.21,1.72,4.29,4.29,0,0,0,1.63,2.51c.76.53,2.1.53,4,0,.3-.08.63-.19,1-.33Z"/><path class="cls-1" d="M75.34,170.63l8.77,1,.44-4.05a21.66,21.66,0,0,0,.18-2.6,1.3,1.3,0,0,0-.4-1,2.75,2.75,0,0,0-1.5-.47l-.43,0,.06-.57,7.55.82-.06.57-.43-.05a2.9,2.9,0,0,0-1.52.11,1.25,1.25,0,0,0-.63.79A17.44,17.44,0,0,0,87,167.8L86.07,176a17.66,17.66,0,0,0-.17,2.6,1.2,1.2,0,0,0,.41.86,4,4,0,0,0,1.63.4l.31,0-.06.57-7.55-.82.06-.57.31,0a4.27,4.27,0,0,0,1.63,0,1.12,1.12,0,0,0,.6-.71,16.82,16.82,0,0,0,.41-2.63l.37-3.33-8.77-1-.36,3.33a17.8,17.8,0,0,0-.17,2.6,1.14,1.14,0,0,0,.4.86,3.82,3.82,0,0,0,1.63.4l.45.05-.07.57-7.63-.83.06-.57.25,0a4,4,0,0,0,1.64,0,1.09,1.09,0,0,0,.6-.71,16.82,16.82,0,0,0,.41-2.63l.9-8.23a22.6,22.6,0,0,0,.19-2.61,1.33,1.33,0,0,0-.4-1,2.84,2.84,0,0,0-1.51-.46l-.38,0,.06-.57,7.64.83-.06.57-.59-.06a2.85,2.85,0,0,0-1.5.11,1.23,1.23,0,0,0-.62.79,19.45,19.45,0,0,0-.41,2.67Z"/><path class="cls-1" d="M65.91,169a8,8,0,0,1-4.81,4.79,9.37,9.37,0,0,1-6.94-.31A9.6,9.6,0,0,1,49,168.81a8.12,8.12,0,0,1,0-6.92A8.37,8.37,0,0,1,53.74,157a9.25,9.25,0,0,1,7.09.3A9.26,9.26,0,0,1,66,162.07,8.41,8.41,0,0,1,65.91,169Zm-2.6-1.17q1.56-3.76.84-6.27a5.85,5.85,0,0,0-3.72-3.76,5.52,5.52,0,0,0-4.94.16c-1.55.84-2.83,2.5-3.87,5a9.69,9.69,0,0,0-.8,6.2,5.63,5.63,0,0,0,3.57,3.75,5.6,5.6,0,0,0,5.1-.1Q61.79,171.54,63.31,167.84Z"/><path class="cls-1" d="M37.89,142.32l.43.36-5,14,12.38-7.79.46.38-5.31,12.7q-.73,1.73-.93,2.34a1.91,1.91,0,0,0-.07,1.07,2.51,2.51,0,0,0,.8,1.08l-.37.44-4.86-4.07.36-.44a2.89,2.89,0,0,0,1.34.69.84.84,0,0,0,.71-.34,10.59,10.59,0,0,0,.95-2l4-9.48-12.08,7.58-.54-.45,4.9-13.58-7.73,5.23a12.09,12.09,0,0,0-1.92,1.49,1.51,1.51,0,0,0,.3,2.39l-.37.44-3.54-3,.37-.44a1.93,1.93,0,0,0,1.65.4,13,13,0,0,0,3.05-1.69Z"/><path class="cls-1" d="M15.81,136.17l.26.51-3.65,1.78L4.93,123.89,8.5,122l.24.47A6.4,6.4,0,0,0,7,124.23a2,2,0,0,0-.32,1.37,7.61,7.61,0,0,0,.74,1.81l1.24,2.42,10.6-5.45a23.11,23.11,0,0,0,2.27-1.27,1.34,1.34,0,0,0,.59-.87,2.77,2.77,0,0,0-.44-1.51l-.37-.73.5-.27,3.85,7.49-.51.26-.39-.77a3,3,0,0,0-.93-1.21,1.29,1.29,0,0,0-1-.09,18.33,18.33,0,0,0-2.45,1.13L9.73,132l1.15,2.22A9.45,9.45,0,0,0,12,136.09a2,2,0,0,0,1.32.51A6.66,6.66,0,0,0,15.81,136.17Z"/><path class="cls-1" d="M10.6,115.53a8.09,8.09,0,0,1-6.68-1.31A9.37,9.37,0,0,1,.3,108.3a9.6,9.6,0,0,1,1-6.93A8.11,8.11,0,0,1,7,97.5a8.42,8.42,0,0,1,6.73,1.22,9.25,9.25,0,0,1,3.71,6,9.27,9.27,0,0,1-1.06,7A8.41,8.41,0,0,1,10.6,115.53Zm-.49-2.81q4-.81,5.67-2.81a5.87,5.87,0,0,0,1-5.19,5.49,5.49,0,0,0-2.9-4q-2.33-1.21-6.29-.4A9.61,9.61,0,0,0,2,103.11a5.64,5.64,0,0,0-1.11,5,5.64,5.64,0,0,0,2.94,4.18C5.41,113.12,7.49,113.25,10.11,112.72Z"/><path class="cls-1" d="M6.9,83.08a8,8,0,0,1-5.63-3.8,9.33,9.33,0,0,1-1-6.86,9.57,9.57,0,0,1,3.59-6,8.07,8.07,0,0,1,6.78-1.34,8.37,8.37,0,0,1,5.73,3.73,9.23,9.23,0,0,1,1.07,7,9.23,9.23,0,0,1-3.68,6A8.39,8.39,0,0,1,6.9,83.08Zm.65-2.78c2.66.54,4.77.41,6.31-.39a5.85,5.85,0,0,0,3-4.38,5.5,5.5,0,0,0-1.12-4.82q-1.68-2-5.64-2.82a9.72,9.72,0,0,0-6.24.41,5.65,5.65,0,0,0-3,4.23,5.64,5.64,0,0,0,1.09,5Q3.63,79.51,7.55,80.3Z"/><path class="cls-1" d="M27.82,48.82l-2.07,4a20.25,20.25,0,0,1-5.63,1.28c-.92.13-1.82.28-2.71.48a8.22,8.22,0,0,0-1.68.47,1.75,1.75,0,0,0-.66.79l-.31.6,3.34,1.7a22.48,22.48,0,0,0,2.37,1.11,1.33,1.33,0,0,0,1,0,2.85,2.85,0,0,0,1-1.25l.37-.72.51.26-3.68,7.2-.51-.26.25-.49a3,3,0,0,0,.44-1.46,1.26,1.26,0,0,0-.52-.86A19.12,19.12,0,0,0,17,60.36L9.62,56.59a18.21,18.21,0,0,0-2.37-1.08,1.09,1.09,0,0,0-1,.07,3.92,3.92,0,0,0-1,1.38l-.13.26L4.7,57l1-2.21c.66-1.47,1.21-2.62,1.64-3.46A14.12,14.12,0,0,1,9.52,48a5.28,5.28,0,0,1,2.42-1.51,3.52,3.52,0,0,1,2.6.28,3.75,3.75,0,0,1,2,2.37A6.12,6.12,0,0,1,16.17,53c.62-.48,2.23-.93,4.83-1.37a17,17,0,0,0,4.38-1.14,4.58,4.58,0,0,0,1.93-1.92Zm-13.57,7.4c.27-.56.54-1.15.81-1.76a6.84,6.84,0,0,0,.55-1.66,2.7,2.7,0,0,0-.72-2.51,5.23,5.23,0,0,0-1.41-1,4.36,4.36,0,0,0-3-.51c-.9.21-1.81,1.2-2.72,3-.14.27-.28.6-.43,1Z"/><path class="cls-1" d="M16.94,35.5l1.8-2.12q2.25-2.66,3.07-3.54a12.48,12.48,0,0,1,4.85-3.49,7.41,7.41,0,0,1,4.41-.16,9.5,9.5,0,0,1,4,2.34,10,10,0,0,1,2.1,2.73A7.25,7.25,0,0,1,38,34.13a6.74,6.74,0,0,1-.43,2.71,9.11,9.11,0,0,1-1.19,2.24,31.31,31.31,0,0,1-2.13,2.47L29.11,47l-.42-.4.48-.51A2.82,2.82,0,0,0,30,44.82a1.24,1.24,0,0,0-.25-1,18.11,18.11,0,0,0-1.89-1.93l-5.94-5.57a18.45,18.45,0,0,0-2-1.7,1.16,1.16,0,0,0-.93-.19,4,4,0,0,0-1.3,1.07l-.34.36Zm3.81-3.56L29,39.65c1.21,1.14,2,1.86,2.41,2.14a1.33,1.33,0,0,0,1.13.29,4.47,4.47,0,0,0,1.56-1.24,9.57,9.57,0,0,0,2-3.06A5,5,0,0,0,36,34.42a9.56,9.56,0,0,0-2.65-3.79,12.41,12.41,0,0,0-3.17-2.21,7,7,0,0,0-3.08-.71,5.45,5.45,0,0,0-2.61.7A11.07,11.07,0,0,0,22,30.5C21.59,31,21.17,31.44,20.75,31.94Z"/><path class="cls-1" d="M51.67,20.94l.5-.33,2.55,4.61L43,32.82l-.31-.48.29-.19c.7-.46,1.1-.84,1.18-1.17a1.51,1.51,0,0,0-.07-1,19.14,19.14,0,0,0-1.35-2.27l-4.5-6.95a18.38,18.38,0,0,0-1.47-2.07,1.17,1.17,0,0,0-.87-.45,3.38,3.38,0,0,0-1.48.66l-.31-.48L44.22,11.9l2.63,3.32-.49.31A6.82,6.82,0,0,0,44.17,14a2.5,2.5,0,0,0-1.66,0,12.74,12.74,0,0,0-2.26,1.24l-2,1.27,3.85,5.95,1.51-1A5.23,5.23,0,0,0,45,20.29a1.1,1.1,0,0,0,.19-.89,5.76,5.76,0,0,0-.78-1.49l.49-.32L48,22.44l-.49.31a4.9,4.9,0,0,0-1.22-1.45,1.18,1.18,0,0,0-.92-.15,6.12,6.12,0,0,0-1.37.72l-1.55,1,2.17,3.35c1.09,1.68,1.83,2.6,2.24,2.75s1.09-.07,2-.68l1-.69a5.66,5.66,0,0,0,1.65-1.48,3.88,3.88,0,0,0,.61-2.07A8.28,8.28,0,0,0,51.67,20.94Z"/><path class="cls-1" d="M74.22,18.06,69.91,19.5a20.37,20.37,0,0,1-4.91-3c-.75-.55-1.5-1.07-2.27-1.56a8.58,8.58,0,0,0-1.53-.84,1.87,1.87,0,0,0-1,.1l-.63.22,1.18,3.55a24.12,24.12,0,0,0,.92,2.45,1.34,1.34,0,0,0,.76.71A2.88,2.88,0,0,0,64,20.89l.77-.26.18.54-7.67,2.57-.18-.55.52-.17a2.87,2.87,0,0,0,1.34-.74,1.26,1.26,0,0,0,.23-1,18.2,18.2,0,0,0-.75-2.59l-2.63-7.86a17,17,0,0,0-.93-2.43,1.1,1.1,0,0,0-.73-.61,4,4,0,0,0-1.65.32l-.27.09L52,7.69l2.25-.89q2.25-.87,3.6-1.32a13.93,13.93,0,0,1,3.87-.82,5.26,5.26,0,0,1,2.78.61,3.51,3.51,0,0,1,1.66,2,3.76,3.76,0,0,1-.26,3.07A6,6,0,0,1,63,12.88q1.17.15,4.41,2.41a17.2,17.2,0,0,0,3.93,2.25,4.59,4.59,0,0,0,2.72,0ZM59.35,13.84c.59-.21,1.19-.44,1.81-.68a7.08,7.08,0,0,0,1.56-.81,3.05,3.05,0,0,0,.92-1,3.08,3.08,0,0,0,.32-1.3,5,5,0,0,0-.3-1.71,4.28,4.28,0,0,0-1.75-2.42q-1.19-.73-4,.21c-.29.1-.62.23-1,.38Z"/></g></g></svg>